<svg preserveAspectRatio="none" width="100%" height="100%" overflow="visible" style="display: block;" viewBox="0 0 14.9126 14.9126" fill="none" xmlns="http://www.w3.org/2000/svg">
<g id="Favorites" clip-path="url(#clip0_0_27)">
<path id="Vector" d="M7.16141 1.42597C7.18864 1.37095 7.23071 1.32464 7.28286 1.29226C7.33501 1.25989 7.39517 1.24273 7.45656 1.24273C7.51794 1.24273 7.5781 1.25989 7.63026 1.29226C7.68241 1.32464 7.72447 1.37095 7.7517 1.42597L9.18704 4.3333C9.2816 4.52466 9.42118 4.69022 9.5938 4.81576C9.76642 4.9413 9.96693 5.02308 10.1781 5.05408L13.3881 5.52383C13.4489 5.53264 13.506 5.5583 13.553 5.59789C13.6 5.63749 13.635 5.68945 13.654 5.7479C13.673 5.80634 13.6753 5.86894 13.6606 5.92861C13.6459 5.98827 13.6147 6.04263 13.5707 6.08554L11.2493 8.34604C11.0962 8.49523 10.9817 8.67939 10.9156 8.88267C10.8494 9.08594 10.8337 9.30225 10.8697 9.51296L11.4177 12.7067C11.4285 12.7675 11.4219 12.8301 11.3988 12.8874C11.3756 12.9446 11.3369 12.9942 11.287 13.0305C11.237 13.0667 11.1779 13.0883 11.1163 13.0925C11.0547 13.0968 10.9931 13.0837 10.9387 13.0547L8.06922 11.546C7.88015 11.4468 7.66979 11.3949 7.45625 11.3949C7.2427 11.3949 7.03234 11.4468 6.84327 11.546L3.97446 13.0547C3.91999 13.0835 3.85851 13.0965 3.79703 13.0921C3.73555 13.0878 3.67653 13.0662 3.62668 13.03C3.57683 12.9937 3.53816 12.9442 3.51506 12.8871C3.49196 12.8299 3.48536 12.7675 3.49601 12.7067L4.04343 9.51358C4.07959 9.30277 4.06393 9.08633 3.99778 8.88293C3.93164 8.67952 3.81701 8.49527 3.66378 8.34604L1.34238 6.08616C1.29801 6.04331 1.26657 5.98885 1.25164 5.929C1.23671 5.86915 1.23889 5.80631 1.25793 5.74764C1.27697 5.68896 1.3121 5.63682 1.35933 5.59714C1.40656 5.55746 1.46398 5.53184 1.52506 5.52321L4.73438 5.05408C4.9458 5.02332 5.14658 4.94165 5.31944 4.81609C5.4923 4.69053 5.63206 4.52485 5.72669 4.3333L7.16141 1.42597Z" fill="var(--fill-0, #FDC700)" stroke="var(--stroke-0, #FDC700)" stroke-width="1.24272" stroke-linecap="round" stroke-linejoin="round"/>
</g>
<defs>
<clipPath id="clip0_0_27">
<rect width="14.9126" height="14.9126" fill="white"/>
</clipPath>
</defs>
</svg>
