<svg preserveAspectRatio="none" width="100%" height="100%" overflow="visible" style="display: block;" viewBox="0 0 14.9126 14.9126" fill="none" xmlns="http://www.w3.org/2000/svg">
<g id="Favorites" clip-path="url(#clip0_0_22)">
<path id="Vector" d="M7.16102 1.42597C7.18825 1.37095 7.23032 1.32464 7.28247 1.29226C7.33462 1.25989 7.39478 1.24273 7.45617 1.24273C7.51755 1.24273 7.57772 1.25989 7.62987 1.29226C7.68202 1.32464 7.72408 1.37095 7.75131 1.42597L9.18665 4.3333C9.28121 4.52466 9.42079 4.69022 9.59341 4.81576C9.76603 4.9413 9.96654 5.02308 10.1777 5.05408L13.3877 5.52383C13.4485 5.53264 13.5056 5.5583 13.5526 5.59789C13.5996 5.63749 13.6346 5.68945 13.6536 5.7479C13.6726 5.80634 13.6749 5.86894 13.6602 5.92861C13.6455 5.98827 13.6143 6.04263 13.5703 6.08554L11.2489 8.34604C11.0959 8.49523 10.9813 8.67939 10.9152 8.88267C10.849 9.08594 10.8333 9.30225 10.8693 9.51296L11.4173 12.7067C11.4281 12.7675 11.4215 12.8301 11.3984 12.8874C11.3753 12.9446 11.3365 12.9942 11.2866 13.0305C11.2366 13.0667 11.1775 13.0883 11.1159 13.0925C11.0543 13.0968 10.9928 13.0837 10.9383 13.0547L8.06883 11.546C7.87976 11.4468 7.66941 11.3949 7.45586 11.3949C7.24231 11.3949 7.03196 11.4468 6.84289 11.546L3.97407 13.0547C3.9196 13.0835 3.85812 13.0965 3.79664 13.0921C3.73516 13.0878 3.67614 13.0662 3.62629 13.03C3.57645 12.9937 3.53777 12.9442 3.51467 12.8871C3.49157 12.8299 3.48497 12.7675 3.49562 12.7067L4.04304 9.51358C4.0792 9.30277 4.06354 9.08633 3.9974 8.88293C3.93125 8.67952 3.81662 8.49527 3.66339 8.34604L1.34199 6.08616C1.29762 6.04331 1.26618 5.98885 1.25125 5.929C1.23632 5.86915 1.2385 5.80631 1.25754 5.74764C1.27658 5.68896 1.31171 5.63682 1.35894 5.59714C1.40617 5.55746 1.4636 5.53184 1.52467 5.52321L4.73399 5.05408C4.94541 5.02332 5.1462 4.94165 5.31906 4.81609C5.49191 4.69053 5.63167 4.52485 5.7263 4.3333L7.16102 1.42597Z" fill="var(--fill-0, #FDC700)" stroke="var(--stroke-0, #FDC700)" stroke-width="1.24272" stroke-linecap="round" stroke-linejoin="round"/>
</g>
<defs>
<clipPath id="clip0_0_22">
<rect width="14.9126" height="14.9126" fill="white"/>
</clipPath>
</defs>
</svg>
