<svg preserveAspectRatio="none" width="100%" height="100%" overflow="visible" style="display: block;" viewBox="0 0 18.6408 18.6408" fill="none" xmlns="http://www.w3.org/2000/svg">
<g id="Icon">
<path id="Vector" d="M15.5345 15.534C15.9465 15.534 16.3416 15.3703 16.6329 15.079C16.9242 14.7877 17.0879 14.3925 17.0879 13.9806V6.21357C17.0879 5.80158 16.9242 5.40647 16.6329 5.11515C16.3416 4.82383 15.9465 4.66017 15.5345 4.66017H9.39855C9.13876 4.66272 8.88247 4.60006 8.65315 4.47794C8.42384 4.35582 8.22881 4.17813 8.08593 3.96114L7.4568 3.0291C7.31536 2.81432 7.1228 2.63802 6.89641 2.51601C6.67003 2.39401 6.41689 2.33012 6.15972 2.33007H3.10729C2.6953 2.33007 2.30019 2.49374 2.00887 2.78505C1.71755 3.07637 1.55389 3.47149 1.55389 3.88347V13.9806C1.55389 14.3925 1.71755 14.7877 2.00887 15.079C2.30019 15.3703 2.6953 15.534 3.10729 15.534H15.5345Z" fill="var(--fill-0, #E0E7FF)" fill-opacity="0.5" stroke="var(--stroke-0, #6A7282)" stroke-width="1.5534" stroke-linecap="round" stroke-linejoin="round"/>
</g>
</svg>
