<svg preserveAspectRatio="none" width="100%" height="100%" overflow="visible" style="display: block;" viewBox="0 0 2.4 11.04" fill="none" xmlns="http://www.w3.org/2000/svg">
<g id="Group 1321316603">
<path id="XMLID_294_" d="M0 5.52001C0 6.18161 0.5384 6.72001 1.2 6.72001C1.8616 6.72001 2.4 6.18161 2.4 5.52001C2.4 4.85841 1.8616 4.32001 1.2 4.32001C0.5384 4.32001 0 4.85841 0 5.52001Z" fill="var(--fill-0, #6A7282)"/>
<path id="XMLID_295_" d="M0 9.84001C0 10.5016 0.5384 11.04 1.2 11.04C1.8616 11.04 2.4 10.5016 2.4 9.84001C2.4 9.17841 1.8616 8.64001 1.2 8.64001C0.5384 8.64001 0 9.17841 0 9.84001Z" fill="var(--fill-0, #6A7282)"/>
<path id="XMLID_297_" d="M0 1.2C0 1.8616 0.5384 2.4 1.2 2.4C1.8616 2.4 2.4 1.8616 2.4 1.2C2.4 0.5384 1.8616 0 1.2 0C0.5384 0 0 0.5384 0 1.2Z" fill="var(--fill-0, #6A7282)"/>
</g>
</svg>
