<svg preserveAspectRatio="none" width="100%" height="100%" overflow="visible" style="display: block;" viewBox="0 0 16 16" fill="none" xmlns="http://www.w3.org/2000/svg">
<g id="Frame">
<path id="Vector" d="M13.3333 13.3333C13.687 13.3333 14.0261 13.1929 14.2761 12.9428C14.5262 12.6928 14.6667 12.3536 14.6667 12V5.33333C14.6667 4.97971 14.5262 4.64057 14.2761 4.39052C14.0261 4.14048 13.687 4 13.3333 4H8.06667C7.84368 4.00219 7.6237 3.94841 7.42687 3.84359C7.23004 3.73877 7.06264 3.58625 6.94 3.4L6.4 2.6C6.27859 2.41565 6.11332 2.26432 5.919 2.1596C5.72468 2.05488 5.50741 2.00004 5.28667 2H2.66667C2.31304 2 1.97391 2.14048 1.72386 2.39052C1.47381 2.64057 1.33333 2.97971 1.33333 3.33333V12C1.33333 12.3536 1.47381 12.6928 1.72386 12.9428C1.97391 13.1929 2.31304 13.3333 2.66667 13.3333H13.3333Z" stroke="var(--stroke-0, #7C4DFF)" stroke-width="1.33333" stroke-linecap="round" stroke-linejoin="round"/>
</g>
</svg>
