<svg preserveAspectRatio="none" width="100%" height="100%" overflow="visible" style="display: block;" viewBox="0 0 16 16" fill="none" xmlns="http://www.w3.org/2000/svg">
<g id="Frame">
<path id="Vector" d="M7.6828 1.52993C7.71201 1.4709 7.75714 1.42122 7.8131 1.38648C7.86905 1.35174 7.9336 1.33333 7.99946 1.33333C8.06532 1.33333 8.12987 1.35174 8.18583 1.38648C8.24178 1.42122 8.28692 1.4709 8.31613 1.52993L9.85613 4.64926C9.95758 4.85457 10.1073 5.0322 10.2925 5.1669C10.4778 5.3016 10.6929 5.38934 10.9195 5.4226L14.3635 5.9266C14.4287 5.93605 14.49 5.96358 14.5405 6.00606C14.5909 6.04855 14.6284 6.10429 14.6488 6.167C14.6692 6.22971 14.6716 6.29687 14.6559 6.36089C14.6401 6.42491 14.6067 6.48323 14.5595 6.52926L12.0688 8.9546C11.9045 9.11466 11.7816 9.31225 11.7107 9.53035C11.6397 9.74845 11.6228 9.98052 11.6615 10.2066L12.2495 13.6333C12.261 13.6985 12.2539 13.7656 12.2291 13.8271C12.2043 13.8885 12.1628 13.9417 12.1092 13.9806C12.0556 14.0195 11.9921 14.0426 11.926 14.0472C11.86 14.0518 11.7939 14.0377 11.7355 14.0066L8.6568 12.3879C8.45394 12.2814 8.22825 12.2258 7.99913 12.2258C7.77001 12.2258 7.54432 12.2814 7.34146 12.3879L4.26346 14.0066C4.20502 14.0375 4.13906 14.0515 4.0731 14.0468C4.00713 14.0421 3.94381 14.019 3.89033 13.9801C3.83684 13.9412 3.79535 13.8881 3.77057 13.8267C3.74578 13.7654 3.7387 13.6984 3.75013 13.6333L4.33746 10.2073C4.37626 9.98108 4.35945 9.74886 4.28849 9.53063C4.21753 9.31239 4.09454 9.1147 3.93013 8.9546L1.43946 6.52993C1.39186 6.48395 1.35813 6.42553 1.34211 6.36131C1.32608 6.2971 1.32842 6.22967 1.34885 6.16672C1.36928 6.10377 1.40698 6.04782 1.45765 6.00525C1.50832 5.96268 1.56993 5.93519 1.63546 5.92593L5.0788 5.4226C5.30563 5.3896 5.52106 5.30197 5.70652 5.16725C5.89198 5.03254 6.04193 4.85478 6.14346 4.64926L7.6828 1.52993Z" stroke="var(--stroke-0, #99A1AF)" stroke-width="1.33333" stroke-linecap="round" stroke-linejoin="round"/>
</g>
</svg>
